<?xml version="1.0" encoding="UTF-8" standalone="no"?>
<svg
   width="100%"
   height="100%"
   viewBox="0 0 16 16"
   version="1.1"
   id="svg9"
   sodipodi:docname="battery-fully-charged.svg"
   inkscape:version="1.2.1 (9c6d41e410, 2022-07-14)"
   xmlns:inkscape="http://www.inkscape.org/namespaces/inkscape"
   xmlns:sodipodi="http://sodipodi.sourceforge.net/DTD/sodipodi-0.dtd"
   xmlns="http://www.w3.org/2000/svg"
   xmlns:svg="http://www.w3.org/2000/svg">
  <sodipodi:namedview
     id="namedview11"
     pagecolor="#ffffff"
     bordercolor="#666666"
     borderopacity="1.0"
     inkscape:pageshadow="2"
     inkscape:pageopacity="0.0"
     inkscape:pagecheckerboard="0"
     showgrid="false"
     inkscape:zoom="18.362679"
     inkscape:cx="7.4063267"
     inkscape:cy="8.0053678"
     inkscape:window-width="943"
     inkscape:window-height="1026"
     inkscape:window-x="10"
     inkscape:window-y="42"
     inkscape:window-maximized="0"
     inkscape:current-layer="svg9"
     inkscape:showpageshadow="2"
     inkscape:deskcolor="#d1d1d1" />
  <defs
     id="defs3">
    <style
       id="current-color-scheme"
       type="text/css">
   .ColorScheme-Text { color:#dfdfdf; } .ColorScheme-Highlight { color:#4285f4; } .ColorScheme-NeutralText { color:#ff9800; } .ColorScheme-PositiveText { color:#ffbd4c; } .ColorScheme-NegativeText { color:#f44336; }
  </style>
  </defs>
  <path
     style="opacity:0.3;fill:#83c0fb;fill-opacity:1"
     class="ColorScheme-Text"
     d="m3 2.525v11.475c0 .55.446 1 1 1h8c.554 0 1-.45 1-1v-11.475z"
     id="path5" />
  <path
     style="fill:#83c0fb;fill-opacity:1"
     class="ColorScheme-Text"
     d="m5.436 1.825v-.41c0-.627.509-1.136 1.136-1.136h2.856c.627 0 1.136.509 1.136 1.136v.41h.963c1.125 0 2.037.912 2.037 2.036v9.824c0 1.125-.912 2.037-2.037 2.037h-7.054c-1.125 0-2.037-.912-2.037-2.037v-9.824c0-1.124.912-2.036 2.037-2.036h.963zm-.963.7c-.738 0-1.337.598-1.337 1.336v9.824c0 .738.599 1.337 1.337 1.337h7.054c.738 0 1.337-.599 1.337-1.337v-9.824c0-.738-.599-1.336-1.337-1.336zm3.527 2.475-3 5h3v3l3-5h-3z"
     id="path7" />
</svg>
